<svg width="24" height="28" viewBox="0 0 24 28" fill="none" xmlns="http://www.w3.org/2000/svg">
<g clip-path="url(#clip0_2453_4823)">
<path d="M12.0055 7.71074C8.59833 7.71074 5.85011 10.5162 5.85011 13.9943C5.85011 17.4725 8.59833 20.2779 12.0055 20.2779C15.4126 20.2779 18.1608 17.4725 18.1608 13.9943C18.1608 10.5162 15.4126 7.71074 12.0055 7.71074ZM12.0055 18.0795C9.80368 18.0795 8.00368 16.2475 8.00368 13.9943C8.00368 11.7412 9.79833 9.90918 12.0055 9.90918C14.2126 9.90918 16.0073 11.7412 16.0073 13.9943C16.0073 16.2475 14.2073 18.0795 12.0055 18.0795ZM19.8483 7.45371C19.8483 8.26855 19.2055 8.91934 18.4126 8.91934C17.6144 8.91934 16.9769 8.26309 16.9769 7.45371C16.9769 6.64434 17.6198 5.98809 18.4126 5.98809C19.2055 5.98809 19.8483 6.64434 19.8483 7.45371ZM23.9251 8.94121C23.834 6.97793 23.3948 5.23887 21.9858 3.80605C20.5823 2.37324 18.8787 1.9248 16.9555 1.82637C14.9733 1.71152 9.03226 1.71152 7.05011 1.82637C5.13225 1.91934 3.42868 2.36777 2.01975 3.80059C0.610826 5.2334 0.176897 6.97246 0.0804687 8.93574C-0.0320312 10.9592 -0.0320312 17.024 0.0804687 19.0475C0.17154 21.0107 0.610826 22.7498 2.01975 24.1826C3.42868 25.6154 5.1269 26.0639 7.05011 26.1623C9.03226 26.2771 14.9733 26.2771 16.9555 26.1623C18.8787 26.0693 20.5823 25.6209 21.9858 24.1826C23.3894 22.7498 23.8287 21.0107 23.9251 19.0475C24.0376 17.024 24.0376 10.9646 23.9251 8.94121ZM21.3644 21.2186C20.9465 22.2904 20.1376 23.1162 19.0823 23.5482C17.5019 24.1881 13.7519 24.0404 12.0055 24.0404C10.259 24.0404 6.50368 24.1826 4.92868 23.5482C3.87868 23.1217 3.06975 22.2959 2.64654 21.2186C2.01975 19.6053 2.1644 15.7771 2.1644 13.9943C2.1644 12.2115 2.02511 8.37793 2.64654 6.77012C3.0644 5.69824 3.87333 4.87246 4.92868 4.44043C6.50904 3.80059 10.259 3.94824 12.0055 3.94824C13.7519 3.94824 17.5073 3.80605 19.0823 4.44043C20.1323 4.86699 20.9412 5.69277 21.3644 6.77012C21.9912 8.3834 21.8465 12.2115 21.8465 13.9943C21.8465 15.7771 21.9912 19.6107 21.3644 21.2186Z" fill="white"/>
</g>
<defs>
<clipPath id="clip0_2453_4823">
<rect width="24" height="28" fill="white"/>
</clipPath>
</defs>
</svg>
