<svg width="21" height="23" viewBox="0 0 21 23" fill="none" xmlns="http://www.w3.org/2000/svg">
<g id="whatsapp 1" clip-path="url(#clip0_2615_8599)">
<path id="Vector" d="M17.1398 4.26005C15.3467 2.42519 12.9587 1.41602 10.4209 1.41602C5.18274 1.41602 0.920301 5.76725 0.920301 11.1146C0.920301 12.8227 1.35682 14.4916 2.18705 15.9638L0.838989 20.9879L5.87603 19.6379C7.2626 20.4112 8.82464 20.8175 10.4166 20.8175H10.4209C15.6548 20.8175 20.0114 16.4662 20.0114 11.1189C20.0114 8.52828 18.933 6.09491 17.1398 4.26005ZM10.4209 19.1836C9.0001 19.1836 7.60925 18.7948 6.39813 18.0608L6.1114 17.8861L3.12427 18.6855L3.92027 15.7104L3.73197 15.4046C2.94025 14.1202 2.52513 12.6392 2.52513 11.1146C2.52513 6.67158 6.06861 3.05428 10.4252 3.05428C12.535 3.05428 14.5165 3.89308 16.0057 5.41776C17.495 6.94244 18.4108 8.96515 18.4066 11.1189C18.4066 15.5663 14.7732 19.1836 10.4209 19.1836ZM14.7518 13.146C14.5165 13.0237 13.3481 12.4383 13.1299 12.3596C12.9116 12.2766 12.7533 12.2373 12.5949 12.482C12.4366 12.7266 11.983 13.2683 11.8417 13.4343C11.7048 13.596 11.5636 13.6178 11.3282 13.4955C9.93305 12.7834 9.01722 12.2242 8.09712 10.6122C7.85318 10.184 8.34105 10.2146 8.79468 9.28844C8.87172 9.1268 8.8332 8.987 8.77329 8.86467C8.71337 8.74235 8.23834 7.54969 8.04148 7.06476C7.8489 6.59294 7.65204 6.65847 7.50654 6.64974C7.36959 6.641 7.21125 6.641 7.05291 6.641C6.89456 6.641 6.63779 6.70216 6.41953 6.94244C6.20127 7.18709 5.5893 7.77249 5.5893 8.96515C5.5893 10.1578 6.44093 11.3112 6.55648 11.4728C6.6763 11.6344 8.22978 14.0809 10.6135 15.1338C12.1199 15.7978 12.7105 15.8546 13.4637 15.741C13.9216 15.6711 14.8674 15.1556 15.0642 14.5877C15.2611 14.0198 15.2611 13.5348 15.2012 13.4343C15.1455 13.3251 14.9872 13.264 14.7518 13.146Z" fill="#6F6F6F"/>
</g>
<defs>
<clipPath id="clip0_2615_8599">
<rect width="19.1724" height="22.3678" fill="white" transform="translate(0.838989 0.0175781)"/>
</clipPath>
</defs>
</svg>
